<svg  viewBox="0 0 100 100" fill="none" xmlns="http://www.w3.org/2000/svg">
    <path d="M50.5 8C27.0268 8 8 27.0285 8 50.5C8 73.9716 27.0268 93 50.5 93C73.9732 93 93 73.9716 93 50.5C93 27.0285 73.9732 8 50.5 8ZM82.1611 61.6438C81.3053 64.176 80.2184 66.4235 79.0762 68.3277C80.0291 67.8554 81.2969 67.5137 82.97 67.5137C82.97 67.5137 81.3773 71.3288 77.182 71.1663C75.38 73.6249 73.7538 75.2075 73.1459 75.7635C74.1508 75.5726 75.3884 75.5626 76.9124 75.9327C76.9124 75.9327 74.4639 79.2554 70.4378 78.1182C68.4499 79.6774 66.4 80.9 64.392 81.8496C65.3952 81.9601 66.5625 82.3051 67.8839 83.0788C67.8839 83.0788 64.5277 85.6043 60.9554 83.253C58.6476 84.0535 56.5257 84.5308 54.7991 84.8122C55.7034 85.266 56.6815 85.9979 57.6595 87.192C57.6595 87.192 53.8394 88.3291 51.3089 85.1974C50.8885 85.2208 50.6022 85.2225 50.4883 85.2225C50.4699 85.2225 50.4565 85.2225 50.4498 85.2225C50.2689 85.2108 50.1014 85.1823 49.9205 85.1655C47.3883 88.3409 43.5381 87.1937 43.5381 87.1937C44.5764 85.9259 45.6181 85.1722 46.5694 84.7284C44.3034 84.3449 42.2418 83.8073 40.3678 83.1642C36.7503 85.6562 33.3188 83.0788 33.3188 83.0788C34.7139 82.2632 35.9381 81.9216 36.9748 81.8311C34.4509 80.6756 32.391 79.3709 30.7347 78.1283C26.722 79.242 24.2869 75.9327 24.2869 75.9327C25.7389 75.5793 26.9347 75.5726 27.9144 75.7384C26.4222 74.2998 25.6535 73.2363 25.558 73.1007C24.9685 72.4844 24.4259 71.8379 23.9168 71.1731C19.7969 71.2752 18.2293 67.5154 18.2293 67.5154C19.8572 67.5154 21.0932 67.842 22.0377 68.2925C20.8185 66.1538 19.9141 63.9164 19.2576 61.7174C15.2282 60.5284 14.9418 56.4001 14.9418 56.4001C16.5713 56.9545 17.6733 57.7064 18.4286 58.4785C17.9748 56.298 17.7319 54.2648 17.608 52.5214C13.8918 50.5318 14.4662 46.422 14.4662 46.422C15.9768 47.3163 16.908 48.3044 17.4841 49.2356C17.4841 48.502 17.5008 47.941 17.5176 47.5742C16.9314 45.8643 16.5965 42.8012 19.2375 38.8722C19.2375 38.8722 22.2152 43.4075 19.1588 47.9494C19.1304 48.9576 19.1304 50.9739 19.3816 53.4911C19.688 52.8061 20.1268 52.0759 20.7532 51.3139C20.7532 51.3139 22.6222 54.8376 20.0481 57.9426C20.3948 59.6274 20.8771 61.3942 21.5202 63.1611C21.6056 62.4577 21.7781 61.6906 22.0963 60.8349C22.0963 60.8349 25.0891 63.6434 23.5065 67.4903C24.3656 69.0093 25.3839 70.463 26.6064 71.7944C26.3937 70.9068 26.3083 69.8316 26.4657 68.5253C26.4657 68.5253 30.1117 70.6003 29.3798 74.8073C30.6007 75.9377 32.2704 77.2792 34.4292 78.5804C33.9401 77.7715 33.5214 76.7232 33.2886 75.3582C33.2886 75.3582 37.2879 76.276 37.8624 80.3925C39.2558 81.0256 40.7898 81.6067 42.4629 82.1041C41.9035 81.5598 41.3425 80.8665 40.82 79.9621C40.82 79.9621 44.9013 79.4279 46.8708 83.109C48.0381 83.3066 49.2423 83.4774 50.5184 83.5745C50.5385 83.5745 52.0156 83.5611 54.2833 83.2011C56.2343 79.4245 60.3777 79.9604 60.3777 79.9604C59.8066 80.9452 59.1953 81.6754 58.584 82.2347C60.0762 81.806 61.6789 81.2399 63.3269 80.488C63.8511 76.2911 67.909 75.3566 67.909 75.3566C67.6611 76.8069 67.2039 77.8955 66.673 78.7228C68.4214 77.656 70.1598 76.3597 71.7843 74.7687C71.7843 74.7687 71.8044 74.752 71.8061 74.747C71.1178 70.5785 74.7319 68.5236 74.7319 68.5236C74.8876 69.8081 74.8073 70.8649 74.6029 71.7458C75.5458 70.5969 76.6126 69.1265 77.6526 67.3781C76.1722 63.5881 79.1013 60.8349 79.1013 60.8349C79.4463 61.7543 79.6272 62.5816 79.7009 63.3252C80.3657 61.7543 80.9435 60.0427 81.3823 58.1988C78.4699 55.0352 80.4478 51.3123 80.4478 51.3123C81.2517 52.3004 81.7507 53.2265 82.0522 54.0706C82.1929 52.498 82.2364 50.8634 82.1041 49.1485L82.1192 48.075C78.9171 43.4912 81.9567 38.8706 81.9567 38.8706C84.4387 42.5617 84.2947 45.4825 83.7822 47.2426L83.7487 49.0982C83.7504 49.1234 83.7487 49.1418 83.7504 49.1686C84.3282 48.2558 85.2543 47.2929 86.7281 46.4203C86.7281 46.4203 87.2724 50.3526 83.8191 52.3858C83.7671 54.4223 83.5143 56.3398 83.124 58.1435C83.8593 57.4887 84.8624 56.8691 86.2558 56.3968C86.2592 56.4001 85.9795 60.3726 82.1611 61.6438Z" fill="#E6BF37"/>
    <path d="M71.3805 37.8979C71.9359 37.7524 72.4089 37.4021 72.7058 36.9063C73.3108 35.8661 72.9533 34.5511 71.9029 33.9583C71.5619 33.7643 71.1825 33.6672 70.8085 33.6672C70.0551 33.6672 69.3017 34.0499 68.8947 34.7397C68.5977 35.2356 68.5372 35.8122 68.6802 36.3727C68.8287 36.9332 69.1862 37.3967 69.7086 37.6878C70.2201 37.9788 70.8085 38.0381 71.3805 37.8979Z" fill="#483B09"/>
    <path d="M48.7941 31.1666C48.7941 32.3522 49.7895 33.3169 50.9994 33.3169C52.2093 33.3169 53.2102 32.3576 53.2102 31.1666C53.2102 29.9809 52.2148 29 50.9994 29C49.7895 29 48.7941 29.9755 48.7941 31.1666Z" fill="#483B09"/>
    <path d="M29.293 36.9009C29.8649 37.8764 31.2398 38.2806 32.2847 37.6878C32.6256 37.4776 32.9061 37.2243 33.1041 36.9009C33.4946 36.2272 33.4946 35.3919 33.1041 34.7397C32.8071 34.2439 32.3342 33.872 31.7622 33.7319C31.5642 33.6834 31.3883 33.6672 31.1903 33.6672C30.8163 33.6672 30.4369 33.7643 30.0959 33.9583C29.051 34.5457 28.688 35.8607 29.293 36.9009Z" fill="#483B09"/>
    <path d="M70.1376 39.0836C69.7801 39.0189 69.4171 38.9058 69.0927 38.7333C68.7682 38.5393 68.4877 38.3022 68.2403 38.0273L57.9012 45.4324C57.8847 45.4485 57.8847 45.4485 57.8682 45.4485C57.8353 45.4647 57.8188 45.4809 57.7858 45.497C57.7033 45.5294 57.6208 45.5455 57.5383 45.5455C57.4228 45.5455 57.3238 45.5132 57.2413 45.4647C57.2083 45.4485 57.1753 45.4162 57.1588 45.4C57.1093 45.3677 57.0763 45.3515 57.0433 45.303C57.0268 45.2869 57.0103 45.2545 56.9938 45.2222C56.9938 45.206 56.9773 45.206 56.9773 45.1898L52.0883 34.3409C51.7473 34.4541 51.3679 34.5188 50.9939 34.5188C50.6199 34.5188 50.257 34.4541 49.916 34.3409L45.0105 45.1898C45.0105 45.206 44.994 45.206 44.994 45.2222C44.9775 45.2545 44.961 45.2869 44.9445 45.303C44.9115 45.3515 44.8785 45.3677 44.829 45.4C44.8125 45.4162 44.7795 45.4485 44.7465 45.4647C44.664 45.5132 44.565 45.5455 44.4495 45.5455C44.367 45.5455 44.2845 45.5294 44.202 45.497C44.169 45.4809 44.1525 45.4647 44.1196 45.4485C44.1196 45.4485 44.1031 45.4485 44.0866 45.4324L33.742 38.0219C33.4946 38.2968 33.2361 38.5339 32.9061 38.7118C32.5816 38.9058 32.2187 39.0189 31.8612 39.0944L33.6925 55.6831H68.3008L70.1376 39.0836Z" fill="#483B09"/>
    <path d="M68.1743 56.8903H33.8245L34.171 60H67.8278L68.1743 56.8903Z" fill="#483B09"/>
</svg>
